<?xml version="1.0" standalone="no"?>
<!DOCTYPE svg PUBLIC "-//W3C//DTD SVG 20010904//EN"
 "http://www.w3.org/TR/2001/REC-SVG-20010904/DTD/svg10.dtd">
<svg version="1.0" xmlns="http://www.w3.org/2000/svg"
 width="2000.000000pt" height="2000.000000pt" viewBox="0 0 2000.000000 2000.000000"
 preserveAspectRatio="xMidYMid meet">

<g transform="translate(0.000000,2000.000000) scale(0.100000,-0.100000)"
fill="#000000" stroke="none">
<path d="M9380 17325 c0 -199 -70 -465 -165 -627 l-36 -60 89 -92 c142 -147
217 -273 282 -475 l37 -114 17 69 c82 325 84 542 10 836 -43 173 -122 358
-203 478 l-31 45 0 -60z"/>
<path d="M9460 17356 c0 -3 14 -29 31 -58 149 -250 249 -682 220 -948 -6 -57
-20 -146 -31 -199 -22 -104 -107 -397 -146 -500 -13 -35 -24 -65 -24 -67 0 -2
44 41 98 94 139 140 322 256 501 318 l53 19 -6 105 c-37 572 -254 974 -658
1219 -21 12 -38 20 -38 17z"/>
<path d="M10531 16627 c50 -93 73 -211 73 -377 -1 -158 -15 -253 -64 -440 -43
-161 -49 -290 -20 -430 20 -99 80 -264 113 -311 15 -21 17 -19 50 47 74 147
149 384 181 574 73 426 -27 755 -288 947 -32 24 -62 43 -66 43 -5 0 5 -24 21
-53z"/>
<path d="M9083 16521 c-68 -74 -126 -118 -308 -232 -122 -77 -248 -222 -316
-361 l-22 -46 27 -114 c77 -317 208 -613 368 -830 66 -90 217 -244 290 -296
l47 -32 11 57 c36 180 95 373 262 853 102 292 110 319 104 370 -14 146 -115
389 -215 520 -27 36 -78 93 -113 127 l-63 62 -72 -78z"/>
<path d="M11895 16184 c-191 -34 -456 -146 -595 -252 -260 -197 -415 -520
-461 -960 -17 -167 -6 -539 20 -664 62 -302 205 -576 411 -791 118 -123 234
-212 370 -281 178 -91 347 -140 527 -152 117 -7 131 -11 138 -34 12 -37 196
-313 260 -389 450 -536 1145 -815 1923 -771 482 28 971 170 1267 370 78 53
209 169 226 202 10 18 6 19 -63 13 -40 -3 -249 -10 -464 -16 -552 -14 -745 3
-1313 117 -622 125 -876 196 -1174 330 -543 242 -980 610 -1164 979 -139 278
-160 574 -62 871 32 96 51 126 70 107 6 -6 0 -45 -20 -116 -88 -313 -63 -573
79 -845 28 -53 58 -106 66 -117 18 -24 17 -26 129 135 129 186 193 324 260
564 79 285 86 331 90 559 4 213 15 277 61 371 35 71 100 144 162 181 42 25 56
42 85 100 40 82 110 178 167 228 l39 36 -42 25 c-151 89 -376 173 -536 200
-117 20 -345 20 -456 0z"/>
<path d="M13543 16080 c-179 -19 -351 -62 -478 -120 -146 -66 -294 -279 -346
-497 -38 -160 -24 -395 34 -558 l14 -39 6 83 c14 176 100 354 242 497 81 81
102 96 205 146 63 31 147 65 185 75 96 24 295 24 385 -1 179 -49 330 -159 395
-288 19 -39 35 -82 35 -95 0 -18 8 -27 33 -35 86 -30 208 -101 261 -152 84
-81 107 -139 117 -295 9 -148 42 -332 100 -561 36 -141 42 -180 43 -272 0
-123 -10 -120 111 -37 101 69 103 72 125 121 24 55 76 308 91 448 16 148 6
418 -21 545 -60 281 -176 502 -361 686 -90 90 -106 101 -230 163 -246 121
-474 180 -735 190 -71 2 -166 1 -211 -4z"/>
<path d="M10065 15932 c-268 -112 -510 -322 -618 -537 -13 -27 -147 -419 -147
-431 0 -3 32 22 71 55 230 199 533 330 859 370 159 20 144 9 137 104 -3 45
-15 117 -26 160 -32 124 -137 317 -171 317 -8 0 -55 -17 -105 -38z"/>
<path d="M14898 15846 c-32 -7 -78 -21 -103 -30 l-45 -18 66 -71 c169 -182
287 -415 338 -668 21 -104 39 -312 33 -380 l-5 -56 65 -12 c164 -30 280 -139
328 -305 25 -87 17 -236 -20 -334 -50 -137 -124 -240 -239 -331 -60 -48 -73
-67 -205 -294 -151 -261 -221 -401 -270 -539 -28 -80 -67 -255 -59 -263 7 -8
237 37 314 60 238 73 450 237 605 468 71 106 183 330 234 470 108 294 208 785
209 1022 0 251 -98 564 -250 792 -71 107 -197 240 -299 316 -88 66 -227 137
-320 163 -79 22 -299 28 -377 10z"/>
<path d="M8378 15724 c-38 -127 -55 -221 -68 -363 l-10 -125 26 -40 c130 -198
362 -384 629 -501 l59 -27 -81 85 c-223 232 -385 536 -489 916 -19 69 -36 130
-37 135 -2 5 -15 -31 -29 -80z"/>
<path d="M13513 15610 c-145 -20 -328 -106 -432 -204 -73 -70 -163 -210 -201
-314 -27 -74 -32 -101 -32 -182 -1 -172 48 -287 182 -420 77 -78 93 -89 169
-118 47 -17 85 -30 85 -29 1 1 14 28 30 60 40 80 121 152 196 174 l57 17 6 71
c7 89 37 174 90 261 47 76 74 96 167 120 77 20 230 15 325 -11 192 -50 320
-175 342 -335 l8 -55 24 55 c33 75 33 174 1 248 -52 120 -249 235 -468 273
-100 18 -321 6 -407 -21 -274 -86 -479 -301 -550 -575 -14 -55 -25 -80 -35
-80 -25 0 -17 108 14 200 86 255 314 461 591 536 103 28 335 32 433 7 34 -8
62 -11 62 -6 0 27 -60 119 -108 165 -61 59 -182 124 -272 147 -75 19 -202 26
-277 16z"/>
<path d="M12603 15496 c-95 -108 -129 -222 -114 -389 14 -160 69 -279 192
-411 56 -59 213 -186 232 -186 5 0 -46 78 -120 181 -144 205 -206 509 -155
762 10 48 15 87 11 87 -4 0 -25 -20 -46 -44z"/>
<path d="M10230 15345 c-275 -40 -507 -127 -713 -268 -99 -68 -233 -194 -248
-235 -17 -45 -57 -241 -70 -346 -22 -180 -2 -391 50 -520 12 -29 13 -28 55 77
95 233 211 412 371 573 163 164 340 272 533 326 l82 23 25 78 c26 82 55 228
55 278 0 34 -4 34 -140 14z"/>
<path d="M5401 15140 c-46 -5 -91 -12 -100 -15 -10 -4 33 -24 114 -54 474
-173 802 -398 1143 -786 42 -47 52 -55 48 -35 -3 14 -10 73 -16 132 -12 110
-2 293 20 395 6 24 7 49 4 55 -9 14 -223 116 -343 163 -292 114 -625 169 -870
145z"/>
<path d="M8239 15048 c-62 -123 -122 -302 -143 -423 -32 -184 -13 -434 43
-560 21 -47 22 -47 59 -42 108 17 320 28 422 23 198 -12 419 -51 556 -100 l41
-14 -27 86 c-47 147 -60 339 -34 512 l6 35 -79 29 c-128 46 -312 139 -424 214
-116 78 -265 214 -319 291 -19 27 -38 50 -42 51 -4 0 -31 -46 -59 -102z"/>
<path d="M5180 15093 c0 -5 19 -19 41 -33 57 -35 140 -129 173 -195 14 -30 34
-84 44 -120 15 -58 19 -65 37 -60 11 4 80 9 153 12 152 6 271 -7 401 -44 47
-13 95 -27 106 -30 24 -7 -41 44 -145 114 -186 125 -413 234 -652 314 -158 53
-158 53 -158 42z"/>
<path d="M13838 14976 c-48 -17 -88 -43 -88 -57 0 -24 31 -80 65 -118 40 -44
136 -108 200 -133 84 -33 222 -44 320 -27 30 6 26 -30 -6 -53 -35 -27 -128
-34 -230 -18 -151 24 -318 131 -372 240 l-25 50 -17 -43 c-17 -42 -57 -209
-51 -214 2 -2 34 -7 72 -12 38 -5 136 -21 217 -35 220 -39 339 -34 466 16 l53
21 -4 61 c-12 148 -132 269 -310 311 -96 23 -245 28 -290 11z"/>
<path d="M12467 14792 c-5 -78 -66 -330 -114 -477 -57 -174 -143 -322 -291
-498 l-80 -95 53 -64 c237 -284 631 -552 1085 -736 225 -91 462 -155 953 -257
259 -53 598 -115 636 -115 15 0 19 11 24 78 18 224 134 485 391 874 l18 28
-63 -29 c-82 -37 -179 -66 -299 -88 -85 -16 -151 -18 -647 -15 -329 2 -602 -1
-675 -8 -243 -20 -463 -69 -633 -140 -117 -49 -165 -60 -165 -37 0 37 242 151
464 218 164 49 335 86 636 139 352 61 483 88 610 127 63 19 117 36 119 39 19
18 -168 156 -306 227 -150 76 -263 117 -598 212 -347 100 -435 130 -580 200
-208 100 -395 261 -488 419 l-44 76 -6 -78z"/>
<path d="M6649 14728 c-16 -96 -17 -397 -1 -443 9 -25 10 -17 11 52 2 129 46
304 105 409 13 24 21 46 18 48 -4 2 -32 7 -63 11 l-56 7 -14 -84z"/>
<path d="M10336 14794 c-336 -75 -591 -286 -779 -645 -65 -123 -131 -285 -124
-303 3 -8 35 -30 72 -51 110 -61 253 -176 370 -296 173 -179 277 -328 396
-572 82 -169 135 -315 200 -552 31 -114 55 -185 66 -194 43 -33 207 -102 298
-125 156 -39 229 -46 540 -56 221 -6 320 -14 415 -30 366 -64 703 -226 969
-468 l80 -72 138 25 c448 83 774 70 1069 -44 239 -92 461 -294 543 -493 l23
-54 241 103 c133 57 269 119 303 138 161 90 390 307 503 475 71 106 161 281
214 415 34 88 137 393 137 407 0 4 -36 -28 -80 -72 -245 -242 -696 -422 -1245
-496 -181 -24 -554 -25 -720 0 -470 68 -881 246 -1193 515 l-82 72 -53 -16
c-193 -55 -531 -67 -760 -26 -550 97 -1031 360 -1242 680 -52 80 -98 182 -93
208 7 37 29 19 69 -57 56 -105 152 -224 242 -302 260 -223 676 -401 1088 -464
188 -29 586 -20 681 15 14 5 2 23 -68 101 -71 79 -282 378 -300 425 -4 8 -31
16 -77 20 -185 17 -384 73 -539 150 -439 220 -752 656 -839 1168 -18 101 -20
152 -17 294 4 166 3 172 -16 178 -12 4 -97 9 -191 11 -127 3 -187 0 -239 -12z"/>
<path d="M6798 14708 c-75 -155 -92 -229 -92 -398 0 -189 12 -229 108 -364 42
-60 102 -149 132 -197 l56 -88 37 15 c20 9 101 42 181 75 80 32 148 64 152 71
3 7 11 48 18 91 15 102 51 226 107 364 l44 112 -37 33 c-145 128 -386 269
-561 327 -50 17 -95 31 -101 31 -5 0 -25 -33 -44 -72z"/>
<path d="M5595 14655 c-11 -2 -45 -7 -76 -10 l-56 -6 -12 -123 c-19 -185 -14
-477 8 -490 4 -3 33 2 66 10 95 22 320 52 445 60 243 14 575 -41 729 -120 18
-10 36 -16 41 -14 5 2 -24 46 -63 99 -186 247 -353 426 -437 469 -75 38 -220
86 -317 104 -79 15 -289 28 -328 21z"/>
<path d="M14541 14576 c-38 -39 -119 -78 -212 -102 -93 -24 -294 -14 -459 22
-91 20 -155 28 -235 28 -128 1 -163 -12 -232 -87 -38 -41 -79 -105 -71 -111 2
-2 102 -31 223 -66 521 -149 723 -243 913 -425 44 -41 83 -75 87 -75 5 0 39
14 76 31 77 36 79 39 79 151 0 58 -10 116 -41 235 -22 87 -53 220 -67 296
l-27 138 -34 -35z"/>
<path d="M15175 14524 c-12 -97 -48 -269 -71 -343 -13 -41 -22 -77 -20 -78 2
-2 29 28 61 67 56 70 82 84 77 41 -7 -70 -190 -269 -333 -364 -232 -154 -525
-253 -974 -328 l-200 -34 160 -7 c301 -13 715 -13 820 1 458 59 784 312 824
640 16 132 -18 255 -94 340 -42 46 -138 97 -202 107 l-41 6 -7 -48z"/>
<path d="M16369 14447 c-25 -7 -65 -25 -90 -40 -89 -54 -86 -48 -109 -207
-133 -919 -503 -1504 -1047 -1655 l-88 -24 510 0 c281 0 516 0 523 0 17 -1 15
-37 -8 -144 -98 -441 -271 -799 -504 -1041 -45 -47 -80 -86 -77 -86 12 0 354
188 444 244 522 324 773 697 827 1231 16 160 19 175 35 175 23 0 28 -43 21
-158 -32 -471 -223 -835 -596 -1136 -267 -215 -692 -440 -1395 -736 -224 -94
-463 -213 -626 -311 -132 -79 -314 -204 -379 -259 l-35 -30 80 36 c131 60 359
130 545 168 299 60 788 126 1084 146 495 33 958 192 1491 511 487 292 701 497
831 797 216 500 91 1239 -311 1847 -229 345 -486 559 -790 655 -87 28 -266 37
-336 17z"/>
<path d="M4310 14407 c0 -3 24 -19 53 -35 174 -98 347 -353 456 -673 44 -131
67 -180 122 -259 39 -58 146 -166 214 -217 60 -45 165 -106 172 -100 8 8 -25
195 -54 307 -63 247 -174 491 -291 645 -120 158 -286 274 -442 309 -70 16
-230 32 -230 23z"/>
<path d="M7542 14278 c-41 -99 -88 -256 -107 -357 -8 -46 -14 -86 -12 -88 2
-1 50 13 108 32 57 20 162 51 233 70 71 19 131 37 134 39 14 14 -292 376 -318
376 -4 0 -21 -33 -38 -72z"/>
<path d="M5825 14039 c-101 -11 -344 -55 -353 -63 -9 -10 18 -116 54 -211 27
-69 107 -227 129 -253 2 -2 33 20 70 48 90 68 268 153 390 187 92 25 115 27
295 27 208 1 276 -10 452 -70 38 -12 68 -20 68 -17 0 3 -25 45 -55 93 -56 87
-56 88 -148 133 -106 53 -217 89 -343 112 -108 20 -431 28 -559 14z"/>
<path d="M8355 13834 c-16 -2 -73 -9 -125 -15 -210 -24 -503 -96 -747 -185
-133 -48 -433 -173 -433 -180 0 -2 26 -37 58 -77 71 -87 119 -167 162 -267 35
-84 80 -247 80 -291 0 -16 1 -29 3 -29 2 0 39 20 83 45 288 165 603 198 886
95 341 -125 648 -445 793 -830 16 -41 29 -76 30 -77 0 -1 30 7 65 18 193 60
434 34 655 -70 94 -45 258 -152 370 -242 104 -84 275 -248 310 -299 l27 -40
-93 -98 c-129 -136 -227 -309 -283 -500 l-15 -53 32 19 c38 23 115 48 175 56
98 14 246 -36 334 -114 57 -50 58 -48 58 113 0 309 -89 571 -280 822 -148 194
-200 322 -200 491 0 168 -96 479 -230 747 -267 531 -683 852 -1220 942 -90 16
-429 28 -495 19z"/>
<path d="M3835 13634 c-182 -27 -346 -91 -488 -191 -27 -19 -95 -50 -150 -70
-353 -122 -577 -310 -642 -537 -13 -45 -16 -85 -13 -166 5 -129 16 -154 34
-82 68 266 351 475 746 551 437 84 1064 33 1770 -145 75 -19 141 -34 146 -34
5 0 14 11 20 24 9 21 5 28 -36 68 -286 275 -679 495 -1007 563 -77 16 -317 28
-380 19z"/>
<path d="M6289 13570 c-365 -46 -654 -285 -864 -715 -78 -159 -95 -242 -95
-473 l0 -152 58 29 c99 50 355 148 468 180 159 44 225 54 359 55 193 0 376
-46 552 -139 l82 -43 64 76 c82 97 232 243 318 310 l66 52 -13 80 c-40 255
-213 554 -362 629 -174 87 -445 135 -633 111z"/>
<path d="M7790 12906 c-135 -29 -369 -134 -428 -193 -12 -13 -28 -23 -34 -23
-43 0 -451 -395 -427 -414 2 -1 31 -23 64 -48 126 -95 270 -257 348 -391 23
-39 33 -47 56 -47 89 0 246 -81 317 -163 94 -109 130 -212 144 -409 12 -167
32 -304 66 -458 59 -261 139 -414 429 -815 56 -77 121 -169 144 -204 31 -45
46 -60 51 -50 11 20 47 237 60 354 38 375 30 791 -21 988 -17 66 -16 91 3 95
11 2 23 -9 37 -35 80 -158 95 -734 30 -1185 -42 -296 -114 -509 -243 -724
-122 -202 -245 -354 -468 -576 -108 -109 -196 -198 -194 -198 2 0 35 13 75 30
101 41 327 114 454 146 l109 27 110 105 c291 280 507 643 603 1015 90 346 132
851 122 1434 -6 321 -12 387 -53 593 -113 562 -442 977 -894 1125 -76 25 -102
29 -240 31 -103 2 -177 -1 -220 -10z"/>
<path d="M4220 12744 c-566 -67 -1033 -299 -1489 -738 -62 -60 -81 -87 -121
-171 -122 -255 -224 -608 -266 -916 -24 -172 -24 -495 -1 -649 34 -219 94
-413 183 -591 49 -98 163 -273 221 -338 l39 -44 -28 -53 c-68 -125 -108 -298
-108 -463 0 -404 183 -750 519 -979 553 -378 1365 -493 2387 -337 242 37 270
40 279 25 21 -34 -60 -55 -396 -104 -308 -45 -505 -58 -799 -53 -165 3 -311
11 -386 21 l-122 17 -58 -31 c-133 -72 -227 -171 -274 -290 -28 -70 -37 -198
-20 -271 43 -181 183 -304 359 -316 156 -11 240 38 480 281 85 86 156 156 159
156 2 0 34 -27 71 -60 193 -172 427 -250 745 -250 249 0 428 37 856 175 462
149 637 193 860 216 130 13 300 6 405 -16 38 -8 73 -15 77 -15 4 0 16 26 28
58 74 198 226 396 438 571 117 96 103 86 437 313 321 217 428 301 556 435 140
146 226 296 275 478 29 108 27 345 -4 442 -12 40 -26 74 -30 77 -4 2 -43 -20
-87 -50 -117 -80 -277 -159 -427 -209 -73 -25 -141 -45 -150 -45 -9 0 -42 -33
-72 -73 -73 -97 -206 -246 -246 -275 -17 -13 -30 -26 -27 -28 2 -2 28 1 58 6
30 6 110 20 179 30 110 17 126 18 140 5 26 -27 -8 -42 -160 -69 -80 -14 -194
-37 -255 -51 -60 -15 -121 -29 -135 -32 -80 -17 -294 -82 -410 -125 -239 -89
-425 -184 -845 -431 -413 -243 -624 -348 -854 -423 -101 -34 -141 -36 -141
-10 0 20 18 31 80 51 113 36 259 99 410 176 164 83 280 148 267 149 -5 0 -63
-8 -130 -17 -171 -24 -621 -24 -797 0 -672 93 -1252 344 -1735 752 -126 106
-362 344 -451 455 -249 307 -452 671 -565 1010 -84 256 -92 426 -25 591 137
341 599 667 1088 769 122 25 327 43 399 35 l57 -7 50 106 c101 212 243 375
437 505 58 39 109 71 113 71 4 0 6 91 6 202 l-2 202 -43 19 c-75 32 -269 84
-399 107 -99 18 -171 23 -345 25 -121 2 -236 1 -255 -1z"/>
<path d="M6072 12419 c-238 -31 -638 -189 -880 -348 -114 -75 -253 -208 -320
-304 -252 -365 -308 -868 -151 -1342 40 -121 137 -313 223 -442 189 -285 461
-552 815 -797 l124 -86 116 0 116 0 37 51 c50 68 309 482 305 485 -1 1 -36 -3
-77 -8 -41 -5 -123 -7 -182 -4 -383 22 -739 181 -989 443 -127 133 -196 255
-226 399 -38 184 41 384 177 454 84 43 218 60 305 40 22 -5 41 -7 43 -5 2 2 8
40 13 84 15 137 71 286 155 419 50 78 188 216 269 271 192 128 367 158 563 96
113 -36 195 -89 298 -190 79 -79 97 -103 143 -195 85 -173 115 -333 109 -578
l-3 -149 35 15 c19 8 61 28 94 44 l59 30 -7 66 c-16 154 -60 309 -132 461 -44
94 -52 125 -35 135 20 13 40 -9 84 -92 50 -95 106 -254 132 -372 22 -101 31
-364 16 -459 -6 -40 -10 -76 -7 -78 2 -2 32 20 68 50 l63 54 17 84 c48 236 50
497 5 689 -72 308 -240 596 -455 783 -266 232 -597 338 -920 296z"/>
<path d="M10375 12003 c15 -84 67 -180 169 -317 157 -209 238 -385 281 -616
21 -106 24 -340 7 -425 -9 -42 -8 -53 8 -75 27 -38 75 -139 94 -195 47 -145
48 -162 56 -780 8 -624 14 -703 61 -860 22 -72 67 -169 101 -218 24 -33 28
-28 -82 -99 -301 -194 -496 -422 -875 -1023 -186 -295 -271 -423 -359 -539
l-65 -86 37 -9 c130 -35 398 -38 568 -7 378 69 881 262 1157 446 62 41 153
114 211 170 56 54 137 124 179 154 177 127 424 354 570 524 80 93 209 263 229
302 7 14 37 65 66 114 187 313 304 644 358 1021 22 152 25 559 6 720 -33 269
-100 561 -151 663 -111 220 -347 482 -561 625 -202 134 -413 221 -645 267 -88
18 -167 24 -395 30 -287 9 -434 24 -584 59 -148 35 -298 98 -393 162 -23 16
-45 29 -48 29 -4 0 -4 -17 0 -37z"/>
<path d="M9320 12004 c-65 -10 -150 -37 -150 -49 0 -6 9 -47 20 -91 27 -102
56 -289 70 -434 13 -146 13 -538 0 -785 -38 -720 -129 -1102 -348 -1465 -28
-46 -50 -86 -48 -88 10 -9 187 60 301 117 209 106 389 241 527 399 168 190
244 366 338 782 116 518 205 732 381 914 l76 80 -84 95 c-177 199 -451 395
-660 471 -136 49 -309 71 -423 54z"/>
<path d="M6197 11775 c-83 -21 -204 -87 -284 -154 -105 -88 -178 -182 -238
-306 -62 -127 -88 -221 -89 -320 -1 -59 4 -81 31 -138 38 -80 113 -159 196
-206 32 -18 60 -32 62 -30 2 2 -8 38 -22 79 -64 190 -28 391 94 521 85 92 242
147 334 120 38 -12 50 -33 27 -47 -7 -4 -43 -9 -81 -10 -85 -2 -177 -44 -232
-105 -117 -130 -138 -343 -54 -539 19 -43 27 -51 63 -62 24 -7 103 -12 191
-13 l151 0 76 37 c41 21 102 58 134 83 66 51 144 139 144 162 0 75 -81 263
-157 361 l-48 63 -6 -88 c-9 -120 -37 -192 -112 -291 -92 -121 -350 -262 -335
-184 2 9 35 34 73 55 138 78 216 155 269 267 27 56 31 78 34 160 2 76 -1 102
-15 129 -27 52 -65 76 -119 73 -50 -2 -68 18 -41 45 41 41 146 9 245 -75 122
-104 197 -227 259 -422 7 -22 40 48 58 122 57 244 -40 563 -197 648 -133 72
-288 96 -411 65z"/>
<path d="M7404 11659 c128 -280 171 -618 116 -921 -6 -33 -9 -62 -7 -64 2 -2
24 22 49 53 201 256 253 555 136 775 -55 104 -187 205 -290 224 l-38 6 34 -73z"/>
<path d="M6861 11430 c32 -101 37 -263 10 -372 -44 -186 -153 -342 -315 -452
-35 -23 -36 -26 -15 -26 59 0 215 33 360 77 l87 25 6 46 c9 69 7 248 -4 342
-15 117 -45 230 -84 314 -50 106 -70 127 -45 46z"/>
<path d="M4450 11453 c-266 -26 -443 -75 -645 -175 -345 -173 -607 -439 -656
-668 -7 -34 -9 -100 -6 -175 6 -138 31 -238 103 -417 269 -670 752 -1239 1364
-1608 105 -63 415 -220 436 -220 24 0 -25 226 -81 370 -71 185 -137 297 -298
504 -190 243 -306 437 -381 634 -50 131 -61 198 -46 274 30 156 132 264 337
360 48 22 89 41 90 42 1 1 -9 38 -23 81 -59 185 -68 252 -68 505 -1 222 1 241
26 345 15 61 30 120 34 133 6 22 5 22 -72 20 -44 0 -95 -3 -114 -5z"/>
<path d="M13348 11429 c-153 -11 -438 -55 -438 -68 0 -3 33 -47 74 -97 80
-100 174 -246 217 -339 70 -150 169 -672 169 -892 0 -34 4 -64 9 -67 5 -3 34
24 64 62 79 96 266 276 377 361 183 142 369 259 600 379 80 41 147 77 150 79
7 6 -56 119 -93 168 -148 196 -376 334 -645 390 -67 14 -311 37 -357 34 -11
-1 -68 -5 -127 -10z"/>
<path d="M19007 11030 c-3 -14 -11 -52 -18 -85 -16 -82 -62 -220 -103 -310
-176 -382 -563 -676 -1101 -840 -259 -79 -595 -140 -877 -161 -54 -4 -98 -9
-98 -13 0 -3 37 -36 83 -72 315 -254 695 -459 1016 -550 l105 -29 90 69 c492
374 817 856 911 1346 36 183 38 462 6 630 -7 36 -8 37 -14 15z"/>
<path d="M18906 10884 c-16 -31 -62 -91 -102 -134 -148 -156 -351 -266 -644
-346 -69 -19 -126 -38 -128 -42 -1 -4 -31 -55 -65 -114 -81 -135 -158 -242
-259 -357 -80 -92 -80 -93 -47 -86 154 31 488 169 644 265 245 151 437 360
546 596 38 82 92 249 87 266 -2 4 -16 -17 -32 -48z"/>
<path d="M7746 10897 c-10 -42 -143 -230 -221 -315 -85 -91 -214 -206 -466
-412 -353 -290 -503 -473 -743 -903 -43 -77 -75 -142 -72 -145 9 -9 343 17
511 39 200 26 454 78 710 144 396 102 607 132 815 115 77 -6 107 -5 112 3 4 7
22 50 39 97 37 104 48 77 -141 335 -189 256 -306 432 -363 543 -57 110 -118
289 -143 424 -11 54 -22 98 -25 98 -4 0 -9 -10 -13 -23z"/>
<path d="M5300 10899 c-176 -31 -256 -138 -254 -344 0 -84 5 -111 27 -168 71
-181 242 -365 463 -497 89 -53 220 -113 235 -108 14 5 -115 254 -223 430 -108
175 -119 210 -93 287 15 47 62 102 96 113 11 4 10 18 -4 79 -10 41 -21 102
-24 136 -5 54 -9 62 -29 67 -47 12 -140 15 -194 5z"/>
<path d="M5600 10745 c0 -19 47 -180 69 -235 29 -72 85 -173 127 -232 32 -43
40 -48 107 -64 108 -25 327 -30 467 -10 322 47 823 186 850 235 5 10 12 53 15
97 3 43 8 99 10 124 8 75 -1 77 -101 27 -237 -119 -517 -183 -844 -194 -255
-8 -401 25 -552 124 -37 24 -86 65 -108 91 -22 26 -40 42 -40 37z"/>
<path d="M10313 10736 c-58 -19 -130 -62 -148 -89 -8 -13 -37 -122 -64 -242
-75 -332 -115 -459 -188 -598 -69 -131 -205 -295 -331 -399 l-43 -36 30 -86
c43 -121 57 -241 42 -358 -32 -256 -141 -475 -331 -668 -119 -121 -251 -223
-532 -411 -322 -215 -453 -314 -574 -434 -174 -172 -251 -293 -280 -440 -19
-94 -30 -110 -66 -96 -77 29 -233 44 -412 38 -213 -6 -355 -32 -638 -117 -205
-61 -194 -47 -133 -175 61 -126 194 -261 383 -388 347 -233 808 -338 1237
-282 472 62 912 287 1270 650 184 186 321 376 665 918 305 480 527 736 793
914 l97 65 -29 52 c-41 73 -80 186 -102 300 -28 143 -39 375 -39 841 0 437 -8
540 -50 667 -51 152 -166 295 -285 352 -49 24 -76 30 -145 33 -53 2 -101 -2
-127 -11z"/>
<path d="M16240 10583 c-164 -57 -369 -113 -495 -134 l-76 -13 -50 -97 c-28
-53 -81 -137 -117 -185 -79 -107 -241 -270 -335 -339 -56 -41 -65 -51 -50 -57
22 -9 277 -43 469 -62 133 -14 146 -14 203 4 258 78 608 352 898 703 l61 73
-171 82 c-95 45 -174 82 -177 81 -3 -1 -75 -26 -160 -56z"/>
<path d="M15340 10549 c-80 -11 -262 -38 -405 -59 -610 -94 -829 -148 -1074
-266 -161 -77 -271 -153 -382 -265 l-97 -97 -7 -129 c-3 -70 -7 -137 -8 -148
-2 -20 4 -20 298 -19 255 1 321 4 440 22 656 102 1137 409 1374 879 22 46 41
87 41 93 0 12 -3 12 -180 -11z"/>
<path d="M5548 10543 c-28 -32 -38 -61 -38 -106 0 -71 37 -106 169 -156 28
-10 51 -18 51 -17 0 2 -21 39 -47 83 -27 44 -59 110 -73 146 -26 70 -37 78
-62 50z"/>
<path d="M16724 10377 c-37 -45 -129 -144 -203 -221 -209 -213 -406 -363 -583
-445 l-81 -38 108 -6 c162 -10 650 -8 815 3 299 21 680 75 748 107 67 32 275
281 376 453 22 36 48 80 59 99 l21 34 -28 -7 c-91 -23 -326 -47 -456 -47 -238
0 -426 37 -657 129 l-52 21 -67 -82z"/>
<path d="M7040 10294 c-109 -38 -409 -113 -585 -146 -96 -18 -156 -22 -295
-23 -156 0 -186 3 -280 27 -58 15 -142 40 -188 57 -45 16 -81 27 -78 23 2 -4
22 -37 45 -75 56 -91 143 -268 171 -345 22 -61 24 -62 74 -77 130 -39 395 -58
553 -39 51 7 53 8 114 88 85 110 265 288 432 425 113 93 153 129 135 120 -2
-1 -46 -16 -98 -35z"/>
<path d="M4571 10260 c-129 -65 -207 -135 -246 -221 -24 -55 -27 -71 -23 -143
7 -129 61 -234 191 -364 172 -175 420 -293 756 -362 163 -33 407 -63 472 -58
l43 3 -60 39 c-411 271 -769 660 -947 1028 -34 70 -67 127 -74 128 -6 0 -57
-23 -112 -50z"/>
<path d="M14982 9691 c-24 -15 -75 -43 -113 -62 -71 -34 -71 -34 -65 -69 3
-19 24 -102 47 -185 181 -663 454 -1201 774 -1531 l75 -77 112 7 c583 35 1094
252 1486 631 94 89 238 252 231 259 -2 2 -40 31 -84 63 -147 110 -315 275
-481 473 -76 91 -236 304 -280 373 l-26 42 -226 -3 c-366 -6 -776 21 -1174 78
-114 17 -213 30 -220 29 -7 0 -32 -13 -56 -28z"/>
<path d="M16719 9601 c20 -36 185 -258 270 -361 161 -197 383 -412 526 -510
l48 -33 64 32 c69 34 319 186 327 200 3 4 -66 31 -152 60 -324 107 -682 312
-970 553 -90 76 -134 99 -113 59z"/>
<path d="M14714 9560 c-27 -11 -34 -51 -34 -197 0 -289 81 -783 219 -1333 l46
-185 110 -22 c137 -28 366 -53 485 -53 l91 0 -78 88 c-105 116 -160 190 -249
329 -199 312 -401 799 -511 1234 -21 82 -42 149 -48 148 -5 0 -19 -4 -31 -9z"/>
<path d="M14595 9514 c-78 -29 -302 -84 -420 -103 -193 -31 -386 -44 -618 -40
-119 3 -217 4 -217 4 0 0 -11 -53 -25 -118 -59 -286 -181 -610 -315 -836 -36
-63 -41 -54 84 -155 289 -235 628 -403 941 -467 145 -29 432 -37 581 -15 92
13 230 43 280 61 8 2 -6 73 -42 219 -145 584 -227 1125 -209 1374 3 50 5 92 3
91 -2 0 -21 -7 -43 -15z"/>
<path d="M4510 9403 c34 -59 99 -147 210 -288 57 -72 125 -164 153 -205 110
-168 211 -424 243 -615 8 -55 18 -110 20 -122 3 -18 24 -28 127 -62 497 -161
1005 -207 1516 -136 77 11 108 12 117 4 11 -9 54 13 191 94 98 57 227 132 286
165 239 135 599 478 834 795 77 105 183 277 183 299 0 16 -367 4 -480 -17 -52
-9 -243 -54 -425 -100 -332 -84 -564 -129 -840 -162 -214 -26 -872 -26 -1090
0 -455 54 -763 158 -1002 338 l-66 50 23 -38z"/>
<path d="M2588 9195 c-294 -130 -687 -236 -983 -266 -159 -16 -410 -6 -535 20
-52 11 -96 18 -99 15 -13 -13 -20 -297 -11 -457 16 -288 51 -486 126 -719 55
-168 169 -398 261 -527 117 -163 308 -338 465 -426 l45 -25 6 153 c15 354 98
623 256 823 127 162 363 283 589 301 39 3 72 7 72 8 0 1 -24 48 -54 106 -153
295 -183 648 -81 951 13 40 23 73 22 74 -1 2 -37 -13 -79 -31z"/>
<path d="M12835 8163 c-129 -186 -352 -428 -575 -627 l-65 -57 85 5 c294 21
411 26 744 37 204 7 372 13 373 14 6 4 -49 152 -82 220 -63 133 -152 253 -276
378 -65 64 -124 117 -131 117 -7 -1 -40 -40 -73 -87z"/>
<path d="M2750 8033 c-469 -50 -734 -342 -806 -888 -35 -262 8 -700 101 -1019
49 -168 189 -462 323 -678 117 -189 143 -235 192 -348 112 -253 178 -494 221
-806 6 -44 14 -180 17 -304 l7 -224 115 -28 c497 -121 1137 -235 1590 -283
204 -22 594 -30 760 -16 348 30 673 102 955 211 752 290 1276 614 1775 1097
371 359 680 774 798 1073 31 80 68 217 60 225 -3 3 -37 -8 -76 -24 -173 -72
-397 -124 -605 -143 -229 -20 -493 12 -725 87 l-104 34 -89 -67 c-333 -252
-765 -442 -1214 -536 -258 -54 -338 -61 -670 -60 -336 0 -433 10 -700 69 -248
55 -635 201 -635 240 0 31 31 26 167 -29 370 -148 744 -218 1168 -218 536 0
1005 112 1474 353 137 70 431 253 431 268 0 3 -51 32 -113 64 -155 80 -283
173 -407 297 -113 113 -170 198 -197 291 l-15 56 -152 -49 c-373 -122 -607
-164 -855 -155 -286 11 -492 81 -677 229 l-84 67 -167 -167 c-129 -129 -183
-176 -232 -201 -116 -61 -206 -74 -316 -46 -167 43 -280 149 -337 314 -31 90
-31 239 1 325 44 124 135 236 245 307 l60 38 -30 6 c-363 81 -637 191 -868
348 -96 66 -221 179 -276 251 -22 29 -42 45 -55 44 -11 -1 -36 -3 -55 -5z"/>
<path d="M12940 7473 c-147 -5 -506 -24 -582 -30 l-78 -6 93 -56 c238 -145
432 -317 762 -673 80 -86 80 -86 155 -103 238 -52 530 -36 847 46 65 17 121
33 126 36 25 15 -43 181 -125 306 -128 194 -337 355 -593 457 l-76 30 -227 -2
c-125 -1 -261 -3 -302 -5z"/>
<path d="M11794 7337 c-200 -203 -449 -347 -846 -491 -484 -175 -840 -221
-1136 -145 l-76 19 -21 -22 c-12 -13 -73 -76 -136 -141 l-114 -118 37 -72
c140 -271 452 -496 815 -588 111 -28 309 -59 377 -59 36 0 56 -15 56 -42 0
-32 -30 -38 -141 -27 -295 29 -576 123 -791 265 -144 96 -319 286 -388 424
-12 25 -24 47 -26 49 -1 2 -27 -16 -56 -40 -30 -24 -86 -66 -124 -92 l-71 -49
34 -91 c48 -126 97 -310 123 -458 31 -175 38 -463 16 -619 -45 -312 -156 -566
-340 -783 -48 -56 -63 -68 -85 -65 -44 5 -37 34 26 111 172 209 271 425 319
697 21 117 24 411 5 550 -23 176 -79 401 -137 552 l-26 68 -76 -42 c-42 -23
-78 -42 -79 -42 -1 -1 -9 -37 -18 -80 -26 -125 -53 -203 -115 -331 -220 -456
-781 -1070 -1325 -1450 -258 -180 -621 -381 -887 -491 -65 -27 -118 -52 -118
-57 0 -33 235 -288 357 -389 464 -380 1111 -551 1883 -498 944 65 1781 335
2491 806 170 111 359 259 480 372 l75 70 -14 89 c-23 135 -22 593 1 748 56
378 171 685 370 983 150 225 189 341 190 562 1 218 -44 383 -173 645 -74 151
-210 375 -227 375 -4 0 -54 -47 -109 -103z"/>
<path d="M12170 7425 c0 -4 22 -43 50 -89 117 -195 216 -438 262 -643 31 -139
32 -421 1 -533 -41 -147 -82 -234 -184 -391 -133 -202 -257 -454 -235 -476 4
-5 85 -7 179 -7 245 2 488 46 730 134 79 29 88 35 84 54 -3 11 -21 82 -40 156
-75 289 -103 538 -94 860 3 118 11 247 17 285 l11 70 -122 118 c-193 187 -403
344 -575 431 -72 36 -84 41 -84 31z"/>
<path d="M12986 6766 c-3 -17 -10 -106 -16 -198 -20 -334 26 -738 118 -1033
l28 -90 71 -27 c114 -44 233 -76 346 -92 134 -20 384 -21 524 -1 113 16 220
39 230 48 3 4 -18 32 -47 64 -108 117 -224 325 -280 501 l-27 83 -84 48 c-265
149 -520 358 -770 632 l-87 97 -6 -32z"/>
<path d="M14240 6633 c-242 -74 -459 -106 -687 -102 -148 4 -166 2 -139 -9 68
-29 279 -86 431 -117 156 -32 521 -82 530 -73 2 2 -9 40 -26 83 -17 43 -38
113 -47 156 l-17 76 -45 -14z"/>
<path d="M13335 6500 c11 -18 203 -174 295 -240 262 -188 573 -337 854 -411
201 -52 438 -79 572 -64 l69 7 -85 24 c-235 68 -485 243 -595 416 l-29 46 -71
7 c-329 30 -728 113 -943 195 -39 16 -70 24 -67 20z"/>
<path d="M13990 5985 c0 -2 12 -37 26 -77 59 -163 169 -350 271 -458 l60 -64
49 14 c155 41 450 175 629 285 l90 55 -144 0 c-286 0 -564 64 -878 203 -57 25
-103 44 -103 42z"/>
<path d="M12063 5160 c3 -8 26 -67 50 -131 121 -310 172 -577 171 -899 0 -219
-16 -350 -65 -550 -78 -317 -235 -654 -411 -887 -26 -35 -48 -66 -48 -69 0 -8
186 -3 228 6 215 50 328 241 321 543 l-3 117 69 47 c39 25 109 85 156 133 174
174 238 383 194 635 -42 240 -176 501 -398 775 -93 115 -271 304 -264 280z"/>
<path d="M12221 5140 c-24 -5 -45 -11 -48 -13 -2 -2 25 -14 59 -27 148 -53
295 -147 405 -256 35 -35 101 -121 147 -192 96 -147 152 -212 239 -278 145
-109 285 -156 470 -157 70 0 122 4 128 10 14 14 -3 41 -111 173 -302 371 -650
638 -940 720 -85 24 -278 35 -349 20z"/>
</g>
</svg>
